<?xml version="1.0" encoding="iso-8859-1"?>
<!-- Generator: Adobe Illustrator 19.0.0, SVG Export Plug-In . SVG Version: 6.00 Build 0)  -->
<svg version="1.1" id="Layer_1" xmlns="http://www.w3.org/2000/svg" xmlns:xlink="http://www.w3.org/1999/xlink" x="0px" y="0px"
	 viewBox="0 0 509.287 509.287" style="enable-background:new 0 0 509.287 509.287;" xml:space="preserve">
<circle style="fill:#FBD303;" cx="254.644" cy="254.644" r="254.644"/>
<rect x="319.665" y="308.504" transform="matrix(-0.7071 0.7071 -0.7071 -0.7071 810.1134 335.3611)" style="fill:#646B79;" width="31.873" height="53.912"/>
<circle style="fill:#4F5565;" cx="205.478" cy="205.478" r="175.64"/>
<circle style="fill:#FCFCFD;" cx="205.478" cy="205.478" r="141.393"/>
<circle style="fill:#0090FF;" cx="205.478" cy="205.478" r="127.491"/>
<g>
	<path style="fill:#F1F3F7;" d="M379.423,332.63c-4.408-4.408-11.868-4.408-16.276,0l-30.177,30.177
		c-4.408,4.408-4.408,11.868,0,16.276l2.374,2.373l46.792-46.792L379.423,332.63z"/>
	<path style="fill:#F1F3F7;" d="M429.605,476.058c4.408,4.408,11.868,4.408,16.275,0l30.177-30.177
		c4.408-4.408,4.408-11.868,0-16.276l-2.374-2.374l-46.792,46.792L429.605,476.058z"/>
</g>
<rect x="339.107" y="371.322" transform="matrix(0.7071 0.7071 -0.7071 0.7071 404.3806 -167.498)" style="fill:#F0582F;" width="130.542" height="66.119"/>
<g>
	<circle style="fill:#4F5565;" cx="191.576" cy="125.118" r="13.902"/>
	<circle style="fill:#4F5565;" cx="146.14" cy="205.478" r="13.902"/>
	<circle style="fill:#4F5565;" cx="232.943" cy="201.409" r="13.902"/>
	<circle style="fill:#4F5565;" cx="191.576" cy="285.499" r="13.902"/>
	<circle style="fill:#4F5565;" cx="299.401" cy="247.862" r="13.902"/>
	<circle style="fill:#4F5565;" cx="277.362" cy="156.652" r="13.902"/>
</g>
<g>
</g>
<g>
</g>
<g>
</g>
<g>
</g>
<g>
</g>
<g>
</g>
<g>
</g>
<g>
</g>
<g>
</g>
<g>
</g>
<g>
</g>
<g>
</g>
<g>
</g>
<g>
</g>
<g>
</g>
</svg>
